<svg width="100" height="100" viewBox="0 0 100 100" fill="none" xmlns="http://www.w3.org/2000/svg">
<g clip-path="url(#clip0_36_2)">
<rect width="100" height="100" fill="#080616"/>
<path d="M51 22C54.84 22 58.2533 22.72 61.24 24.16C64.2267 25.6 66.7333 27.6267 68.76 30.24C70.84 32.8 72.3867 35.7867 73.4 39.2C74.4667 42.56 75 46.16 75 50C75 55.1733 74.0667 59.8933 72.2 64.16C70.3333 68.3733 67.6133 71.7333 64.04 74.24C60.52 76.7467 56.1733 78 51 78H31.88C30.4933 78 29.32 77.5467 28.36 76.64C27.4533 75.68 27 74.5067 27 73.12V26.88C27 25.4933 27.4533 24.3467 28.36 23.44C29.32 22.48 30.4933 22 31.88 22H51ZM50.2 68.8C53.56 68.8 56.3067 67.9467 58.44 66.24C60.5733 64.48 62.12 62.1867 63.08 59.36C64.0933 56.48 64.6 53.36 64.6 50C64.6 47.4933 64.3067 45.12 63.72 42.88C63.1867 40.5867 62.3333 38.5867 61.16 36.88C59.9867 35.12 58.4933 33.7333 56.68 32.72C54.8667 31.7067 52.7067 31.2 50.2 31.2H36.2L37 30.48V69.68L36.52 68.8H50.2Z" fill="white"/>
</g>
<defs>
<clipPath id="clip0_36_2">
<rect width="100" height="100" fill="white"/>
</clipPath>
</defs>
</svg>
